HIERARCHY
ROOT reference
{
  OFFSET 0 0 0
  CHANNELS 6 Xposition Yposition Zposition Zrotation Xrotation Yrotation
  JOINT Hips
  {
    OFFSET 356.501 91.4882 232.072
    CHANNELS 3 Zrotation Xrotation Yrotation
    JOINT RightUpLeg
    {
      OFFSET -9.22368 -1.56954 0.0182318
      CHANNELS 3 Zrotation Xrotation Yrotation
      JOINT RightLeg
      {
        OFFSET 0.0168043 -41.8502 0.039304
        CHANNELS 3 Zrotation Xrotation Yrotation
        JOINT RightFoot
        {
          OFFSET -1.24655 -41.4872 1.84727
          CHANNELS 3 Zrotation Xrotation Yrotation
          End Site
          {
            OFFSET 0 -7.69 17.5
          }
        }
      }
    }
    JOINT LeftUpLeg
    {
      OFFSET 9.32755 -1.5915 0.117934
      CHANNELS 3 Zrotation Xrotation Yrotation
      JOINT LeftLeg
      {
        OFFSET 0.115891 -41.8441 0.138627
        CHANNELS 3 Zrotation Xrotation Yrotation
        JOINT LeftFoot
        {
          OFFSET -0.00258131 -42.0603 -2.16995
          CHANNELS 3 Zrotation Xrotation Yrotation
          End Site
          {
            OFFSET 0 -7.69 17.5
          }
        }
      }
    }
    JOINT Spine
    {
      OFFSET 0.0618908 14.3142 0.263402
      CHANNELS 3 Zrotation Xrotation Yrotation
      JOINT Spine1
      {
        OFFSET 0.00953893 9.71784 0.0772804
        CHANNELS 3 Zrotation Xrotation Yrotation
        JOINT Spine2
        {
          OFFSET 0.0659978 10.1164 -0.109334
          CHANNELS 3 Zrotation Xrotation Yrotation
          JOINT Spine3
          {
            OFFSET 0.00354353 9.7233 0.0181573
            CHANNELS 3 Zrotation Xrotation Yrotation
            JOINT Neck
            {
              OFFSET -0.106539 10.3631 0.143191
              CHANNELS 3 Zrotation Xrotation Yrotation
              JOINT Head
              {
                OFFSET 0.0687213 9.49492 0.178169
                CHANNELS 3 Zrotation Xrotation Yrotation
                End Site
                {
                  OFFSET 0 15.95 0
                }
              }
            }
            JOINT RightShoulder
            {
              OFFSET -3.17341 6.93407 0.0508814
              CHANNELS 3 Zrotation Xrotation Yrotation
              JOINT RightArm
              {
                OFFSET -12.8122 0.02699 0.0058978
                CHANNELS 3 Zrotation Xrotation Yrotation
                JOINT RightForeArm
                {
                  OFFSET -26.4689 -0.0132424 0.0432591
                  CHANNELS 3 Zrotation Xrotation Yrotation
                  JOINT RightHand
                  {
                    OFFSET -25.9762 -0.0747187 0.0544432
                    CHANNELS 3 Zrotation Xrotation Yrotation
                    JOINT RightHandThumb1
                    {
                      OFFSET -2.48905 0.190105 3.12053
                      CHANNELS 3 Zrotation Xrotation Yrotation
                      JOINT RightHandThumb2
                      {
                        OFFSET -3.68274 0 0
                        CHANNELS 3 Zrotation Xrotation Yrotation
                        JOINT RightHandThumb3
                        {
                          OFFSET -2.55832 0 0
                          CHANNELS 3 Zrotation Xrotation Yrotation
                          End Site
                          {
                            OFFSET -2.194 0 0
                          }
                        }
                      }
                    }
                    JOINT RightInHandIndex
                    {
                      OFFSET -3.22368 0.508421 1.97842
                      CHANNELS 3 Zrotation Xrotation Yrotation
                      JOINT RightHandIndex1
                      {
                        OFFSET -5.21684 -0.091368 0.999158
                        CHANNELS 3 Zrotation Xrotation Yrotation
                        JOINT RightHandIndex2
                        {
                          OFFSET -3.61937 0 0
                          CHANNELS 3 Zrotation Xrotation Yrotation
                          JOINT RightHandIndex3
                          {
                            OFFSET -2.0521 0 0
                            CHANNELS 3 Zrotation Xrotation Yrotation
                            End Site
                            {
                              OFFSET -1.805 0 0
                            }
                          }
                        }
                      }
                    }
                    JOINT RightInHandMiddle
                    {
                      OFFSET -3.38211 0.517263 0.756737
                      CHANNELS 3 Zrotation Xrotation Yrotation
                      JOINT RightHandMiddle1
                      {
                        OFFSET -5.17411 -0.084 0.313895
                        CHANNELS 3 Zrotation Xrotation Yrotation
                        JOINT RightHandMiddle2
                        {
                          OFFSET -3.94947 0 0
                          CHANNELS 3 Zrotation Xrotation Yrotation
                          JOINT RightHandMiddle3
                          {
                            OFFSET -2.47579 0 0
                            CHANNELS 3 Zrotation Xrotation Yrotation
                            End Site
                            {
                              OFFSET -1.975 0 0
                            }
                          }
                        }
                      }
                    }
                    JOINT RightInHandRing
                    {
                      OFFSET -3.36516 0.537895 -0.128947
                      CHANNELS 3 Zrotation Xrotation Yrotation
                      JOINT RightHandRing1
                      {
                        OFFSET -4.63474 -0.022105 -0.478947
                        CHANNELS 3 Zrotation Xrotation Yrotation
                        JOINT RightHandRing2
                        {
                          OFFSET -3.44238 0 0
                          CHANNELS 3 Zrotation Xrotation Yrotation
                          JOINT RightHandRing3
                          {
                            OFFSET -2.3881 0 0
                            CHANNELS 3 Zrotation Xrotation Yrotation
                            End Site
                            {
                              OFFSET -1.857 0 0
                            }
                          }
                        }
                      }
                    }
                    JOINT RightInHandPinky
                    {
                      OFFSET -3.16105 0.469368 -1.20179
                      CHANNELS 3 Zrotation Xrotation Yrotation
                      JOINT RightHandPinky1
                      {
                        OFFSET -4.14105 -0.022105 -1.09053
                        CHANNELS 3 Zrotation Xrotation Yrotation
                        JOINT RightHandPinky2
                        {
                          OFFSET -2.75653 0 0
                          CHANNELS 3 Zrotation Xrotation Yrotation
                          JOINT RightHandPinky3
                          {
                            OFFSET -1.74189 0 0
                            CHANNELS 3 Zrotation Xrotation Yrotation
                            End Site
                            {
                              OFFSET -1.645 0 0
                            }
                          }
                        }
                      }
                    }
                  }
                }
              }
            }
            JOINT LeftShoulder
            {
              OFFSET 3.13763 6.93537 0.265461
              CHANNELS 3 Zrotation Xrotation Yrotation
              JOINT LeftArm
              {
                OFFSET 12.4516 -0.0856895 0.350644
                CHANNELS 3 Zrotation Xrotation Yrotation
                JOINT LeftForeArm
                {
                  OFFSET 26.6962 -0.139113 0.0812581
                  CHANNELS 3 Zrotation Xrotation Yrotation
                  JOINT LeftHand
                  {
                    OFFSET 25.9561 0.0264111 -0.243705
                    CHANNELS 3 Zrotation Xrotation Yrotation
                    JOINT LeftHandThumb1
                    {
                      OFFSET 2.48905 0.190105 3.12053
                      CHANNELS 3 Zrotation Xrotation Yrotation
                      JOINT LeftHandThumb2
                      {
                        OFFSET 3.68274 0 0
                        CHANNELS 3 Zrotation Xrotation Yrotation
                        JOINT LeftHandThumb3
                        {
                          OFFSET 2.55832 0 0
                          CHANNELS 3 Zrotation Xrotation Yrotation
                          End Site
                          {
                            OFFSET 2.194 0 0
                          }
                        }
                      }
                    }
                    JOINT LeftInHandIndex
                    {
                      OFFSET 3.22368 0.508421 1.97842
                      CHANNELS 3 Zrotation Xrotation Yrotation
                      JOINT LeftHandIndex1
                      {
                        OFFSET 5.21684 -0.091368 0.999158
                        CHANNELS 3 Zrotation Xrotation Yrotation
                        JOINT LeftHandIndex2
                        {
                          OFFSET 3.61937 0 0
                          CHANNELS 3 Zrotation Xrotation Yrotation
                          JOINT LeftHandIndex3
                          {
                            OFFSET 2.0521 0 0
                            CHANNELS 3 Zrotation Xrotation Yrotation
                            End Site
                            {
                              OFFSET 1.805 0 0
                            }
                          }
                        }
                      }
                    }
                    JOINT LeftInHandMiddle
                    {
                      OFFSET 3.38211 0.517263 0.756737
                      CHANNELS 3 Zrotation Xrotation Yrotation
                      JOINT LeftHandMiddle1
                      {
                        OFFSET 5.17411 -0.084 0.313895
                        CHANNELS 3 Zrotation Xrotation Yrotation
                        JOINT LeftHandMiddle2
                        {
                          OFFSET 3.94947 0 0
                          CHANNELS 3 Zrotation Xrotation Yrotation
                          JOINT LeftHandMiddle3
                          {
                            OFFSET 2.47579 0 0
                            CHANNELS 3 Zrotation Xrotation Yrotation
                            End Site
                            {
                              OFFSET 1.975 0 0
                            }
                          }
                        }
                      }
                    }
                    JOINT LeftInHandRing
                    {
                      OFFSET 3.36516 0.537895 -0.128947
                      CHANNELS 3 Zrotation Xrotation Yrotation
                      JOINT LeftHandRing1
                      {
                        OFFSET 4.63474 -0.022105 -0.478947
                        CHANNELS 3 Zrotation Xrotation Yrotation
                        JOINT LeftHandRing2
                        {
                          OFFSET 3.44238 0 0
                          CHANNELS 3 Zrotation Xrotation Yrotation
                          JOINT LeftHandRing3
                          {
                            OFFSET 2.3881 0 0
                            CHANNELS 3 Zrotation Xrotation Yrotation
                            End Site
                            {
                              OFFSET 1.857 0 0
                            }
                          }
                        }
                      }
                    }
                    JOINT LeftInHandPinky
                    {
                      OFFSET 3.16105 0.469368 -1.20179
                      CHANNELS 3 Zrotation Xrotation Yrotation
                      JOINT LeftHandPinky1
                      {
                        OFFSET 4.14105 -0.022105 -1.09053
                        CHANNELS 3 Zrotation Xrotation Yrotation
                        JOINT LeftHandPinky2
                        {
                          OFFSET 2.75653 0 0
                          CHANNELS 3 Zrotation Xrotation Yrotation
                          JOINT LeftHandPinky3
                          {
                            OFFSET 1.74189 0 0
                            CHANNELS 3 Zrotation Xrotation Yrotation
                            End Site
                            {
                              OFFSET 1.645 0 0
                            }
                          }
                        }
                      }
                    }
                  }
                }
              }
            }
          }
        }
      }
    }
  }
}
MOTION
Frames: 2
Frame Time: 0.00833333
9.000000000000000000e+02 0.000000000000000000e+00 0.000000000000000000e+00 0.000000000000000000e+00 0.000000000000000000e+00 0.000000000000000000e+00 2.412836087527820794e+01 9.865145576939393646e-01 -1.292691097653952284e+02 2.805306041679327222e+01 -4.294981248213349545e+01 2.601744609410390652e+01 -7.447971114799210035e+00 1.556301913954565563e+01 -9.770493471551424669e-01 8.233820492958363602e+00 8.831912359210056351e+00 4.488626259069545910e+01 3.059270762238676156e+01 -1.500554713353126957e+01 1.926978631248320539e+01 -1.658047944387879369e+01 3.874187592161637639e+01 1.788900245198708561e+01 -1.598638070031889402e+00 -2.618863839813855776e+01 1.301157829408438538e+01 -6.103970380415129959e+00 1.086894779044189185e+00 -9.439774769503781471e+00 -1.562415801568151297e+00 1.276764764162487964e-01 -2.419050399085529435e+00 -2.582405803499344898e+00 2.074260832485617101e-01 -3.940418545998171318e+00 -9.144186552073826357e-01 -4.429602365903432259e-01 2.526477228055718172e+00 -1.017434757702561310e+00 -5.022225026776442114e+00 2.749037436865163286e+01 -1.542782401446470608e+01 2.358856789123368269e+00 3.180679393669034383e+01 5.679306995826850724e+00 2.303691937963419090e+00 2.244849900154241240e+00 6.254070186194965686e+01 -5.470158108553614085e+01 1.195667271877229609e+01 5.588895649071706373e+01 -5.555099291644131299e+00 1.204449598983100884e+02 8.274042582469899543e+00 -2.445991278605557895e+01 8.306100421152473601e+00 2.818400000000000105e+01 1.072940000000000005e+01 1.915919999999999845e+01 -4.443117315519978450e-15 1.959528936295791509e-15 -1.000000000000000000e+01 3.512638784334146612e-15 -4.863121558043614445e-15 -1.000000000000000000e+01 -1.522680753113176046e-15 8.940404694033252765e-16 5.935723948879358615e-16 1.998179999999999978e+01 8.718970000000000331e-01 2.396399999999999864e+00 2.400000000000000000e+01 2.517319354361657471e-15 6.344816500139386458e-15 2.000000000000000000e+01 -1.467643022700409885e-15 2.060257336744837813e-15 -1.522680753113176046e-15 8.940404694033252765e-16 5.935723948879358615e-16 2.000000000000000000e+01 -1.229902234214752353e-14 1.151975129125406643e-14 2.400000000000000000e+01 1.077427825708890953e-15 1.155048911311760889e-14 2.000000000000000000e+01 -7.091177135428061081e-15 6.726757956290493656e-15 -1.522680753113176046e-15 8.940404694033252765e-16 5.935723948879358615e-16 1.997479999999999833e+01 -1.025649999999999951e+00 -2.819380000000000219e+00 2.400000000000000000e+01 -5.822536895374534504e-16 9.827696903880839576e-15 2.000000000000000000e+01 -4.997375314185460901e-15 -3.268481853058785554e-15 -1.522680753113176046e-15 8.940404694033252765e-16 5.935723948879358615e-16 1.978150000000000119e+01 -3.009479999999999933e+00 -8.305149999999999366e+00 2.400000000000000000e+01 4.686531475632401173e-15 9.157555762668524378e-15 2.000000000000000000e+01 1.623174745699927566e-14 1.264536823606544041e-14 6.443670187300270413e+00 -1.812501175641490647e+01 -4.860985440390793144e+01 -9.355714671442157737e+00 3.250026845876814008e+01 -1.128154658916671593e+02 3.890803479968829492e+01 -5.072571400122692253e+00 -1.383238995628501833e+00 -4.060422631842928354e+01 -1.224985189637551031e+01 -8.465033342001770933e+00 -2.818400000000000105e+01 1.072940000000000005e+01 -1.915919999999999845e+01 -1.502982801929582438e-14 3.833619446048018538e-15 1.000000000000000000e+01 -6.672613695548654629e-15 1.844662509231918700e-15 1.000000000000000000e+01 -1.017188686140567468e-14 -1.580155155019906025e-15 2.000020367257508535e-15 -1.998179999999999978e+01 8.718970000000000331e-01 -2.396399999999999864e+00 -2.400000000000000000e+01 3.154504280901866710e-15 1.227869072503006251e-14 -2.000000000000000000e+01 -1.011590107692950956e-15 7.295625541568162196e-15 -1.017188686140567468e-14 -1.580155155019906025e-15 2.000020367257508535e-15 -2.000000000000000000e+01 3.421816107113672792e-16 1.628441312513475412e-14 -2.400000000000000000e+01 -1.310718254436500923e-16 1.078889758565049420e-14 -2.000000000000000000e+01 1.656792006665466298e-15 7.797173174935746359e-15 -1.017188686140567468e-14 -1.580155155019906025e-15 2.000020367257508535e-15 -1.997479999999999833e+01 -1.025649999999999951e+00 2.819380000000000219e+00 -2.400000000000000000e+01 1.345289647803733417e-15 1.086924513267470286e-14 -2.000000000000000000e+01 3.168365747100916279e-15 4.429010909493601384e-15 -1.017188686140567468e-14 -1.580155155019906025e-15 2.000020367257508535e-15 -1.978150000000000119e+01 -3.009479999999999933e+00 8.305149999999999366e+00 -2.400000000000000000e+01 8.240272072810764762e-15 1.965040464026492466e-14 -2.000000000000000000e+01 1.443779127272705629e-15 1.416467960001934891e-14
9.000000000000000000e+02 0.000000000000000000e+00 0.000000000000000000e+00 0.000000000000000000e+00 0.000000000000000000e+00 0.000000000000000000e+00 2.411012637698850014e+01 1.047445061153020163e+00 -1.290931588820347997e+02 2.800419994191711837e+01 -4.281144603718097130e+01 2.597576895552796117e+01 -7.426786694522812482e+00 1.553577485479856435e+01 -9.970845681772391167e-01 8.236717814797019699e+00 8.788955679552083566e+00 4.476149715629426851e+01 3.053177201330593959e+01 -1.501607318643847400e+01 1.915378923277215861e+01 -1.652495657932337991e+01 3.867967626661133096e+01 1.779935604878857802e+01 -1.569884473038974271e+00 -2.610943596560059277e+01 1.297723534729218109e+01 -6.056795152191040366e+00 1.061066748747817368e+00 -9.467216055519434903e+00 -1.550858806703551585e+00 1.196877154429997203e-01 -2.423279807973357514e+00 -2.563488255073075539e+00 1.946780684780928805e-01 -3.947537096354156283e+00 -9.102235795364386206e-01 -4.399495076951641659e-01 2.519685877485152936e+00 -1.008401401652653240e+00 -5.024500061022282971e+00 2.749473397946483288e+01 -1.534615225952791562e+01 2.433751835319599710e+00 3.166478581889821342e+01 5.661063757761190196e+00 2.275377670194900670e+00 2.224373606432168415e+00 6.240064399544641560e+01 -5.464764330039918150e+01 1.194384163841471391e+01 5.565979865632043300e+01 -5.383089807646080693e+00 1.204005373889059314e+02 8.241479801097186808e+00 -2.448684595033020628e+01 8.446436376216214015e+00 2.818400000000000105e+01 1.072940000000000005e+01 1.915919999999999845e+01 -4.430074238524693483e-15 1.974993165330560718e-15 -1.000000000000000000e+01 3.486087750965695341e-15 -4.847419134610426116e-15 -1.000000000000000000e+01 -1.534800872461338176e-15 9.120590623471499608e-16 6.078409168247743750e-16 1.998179999999999978e+01 8.718970000000000331e-01 2.396399999999999864e+00 2.400000000000000000e+01 2.507891490864260961e-15 6.286609739014129620e-15 2.000000000000000000e+01 -1.463754858635585472e-15 2.044308358548346624e-15 -1.534800872461338176e-15 9.120590623471499608e-16 6.078409168247743750e-16 2.000000000000000000e+01 -1.232483989382909389e-14 1.148535000224420471e-14 2.400000000000000000e+01 1.088998890337982868e-15 1.146392741751778030e-14 2.000000000000000000e+01 -7.060424331444559392e-15 6.713618858921058205e-15 -1.534800872461338176e-15 9.120590623471499608e-16 6.078409168247743750e-16 1.997479999999999833e+01 -1.025649999999999951e+00 -2.819380000000000219e+00 2.400000000000000000e+01 -5.908362678739619121e-16 9.756230611059812007e-15 2.000000000000000000e+01 -4.963044503329800280e-15 -3.260646944118628193e-15 -1.534800872461338176e-15 9.120590623471499608e-16 6.078409168247743750e-16 1.978150000000000119e+01 -3.009479999999999933e+00 -8.305149999999999366e+00 2.400000000000000000e+01 4.660935348327440949e-15 9.070952541173772908e-15 2.000000000000000000e+01 1.624239108960197140e-14 1.268259275073887982e-14 6.425933053127189432e+00 -1.813966977940059166e+01 -4.860187488636117337e+01 -9.421925728601930672e+00 3.241361069535479800e+01 -1.127844303834348665e+02 3.867640162159815986e+01 -5.042373338992987897e+00 -1.750705791350049001e+00 -4.065245132571949682e+01 -1.217679482472316721e+01 -8.567679610743425656e+00 -2.818400000000000105e+01 1.072940000000000005e+01 -1.915919999999999845e+01 -1.502006579899107481e-14 3.845410336580656610e-15 1.000000000000000000e+01 -6.690780330068167214e-15 1.849331926659834012e-15 1.000000000000000000e+01 -1.016515731082709402e-14 -1.591860899771971503e-15 1.994018911801072991e-15 -1.998179999999999978e+01 8.718970000000000331e-01 -2.396399999999999864e+00 -2.400000000000000000e+01 3.178189923727476338e-15 1.223469417549365659e-14 -2.000000000000000000e+01 -9.974973391370449628e-16 7.243713841471070597e-15 -1.016515731082709402e-14 -1.591860899771971503e-15 1.994018911801072991e-15 -2.000000000000000000e+01 3.340281238952708252e-16 1.626968021223032642e-14 -2.400000000000000000e+01 -1.341754077096466700e-16 1.077407764989094685e-14 -2.000000000000000000e+01 1.673009832966002199e-15 7.758548992575527521e-15 -1.016515731082709402e-14 -1.591860899771971503e-15 1.994018911801072991e-15 -1.997479999999999833e+01 -1.025649999999999951e+00 2.819380000000000219e+00 -2.400000000000000000e+01 1.322918435143236920e-15 1.087131026442928309e-14 -2.000000000000000000e+01 3.162600205287570288e-15 4.354946567425327729e-15 -1.016515731082709402e-14 -1.591860899771971503e-15 1.994018911801072991e-15 -1.978150000000000119e+01 -3.009479999999999933e+00 8.305149999999999366e+00 -2.400000000000000000e+01 8.226209990238179998e-15 1.965492748355413366e-14 -2.000000000000000000e+01 1.417015592951473087e-15 1.415795108663147660e-14
